<svg id="visual" viewBox="0 0 960 540" width="960" height="540" xmlns="http://www.w3.org/2000/svg" xmlns:xlink="http://www.w3.org/1999/xlink" version="1.1"><rect x="0" y="0" width="960" height="540" fill="#000000"></rect><defs><linearGradient id="grad1_0" x1="43.8%" y1="0%" x2="100%" y2="100%"><stop offset="14.444444444444446%" stop-color="#000000" stop-opacity="1"></stop><stop offset="85.55555555555554%" stop-color="#000000" stop-opacity="1"></stop></linearGradient></defs><defs><linearGradient id="grad2_0" x1="0%" y1="0%" x2="56.3%" y2="100%"><stop offset="14.444444444444446%" stop-color="#000000" stop-opacity="1"></stop><stop offset="85.55555555555554%" stop-color="#000000" stop-opacity="1"></stop></linearGradient></defs><g transform="translate(960, 0)"><path d="M0 243C-18.8 208.5 -37.7 174.1 -69.3 167.2C-100.9 160.4 -145.2 181.1 -171.8 171.8C-198.4 162.5 -207.3 123.2 -216.2 89.5C-225.1 55.9 -234 28 -243 0L0 0Z" fill="#ffffff"></path></g><g transform="translate(0, 540)"><path d="M0 -243C16.8 -203.2 33.7 -163.4 65.1 -157.1C96.4 -150.7 142.3 -177.8 171.8 -171.8C201.3 -165.8 214.4 -126.8 223.6 -92.6C232.7 -58.5 237.9 -29.2 243 0L0 0Z" fill="#ffffff"></path></g></svg>