<svg id="visual" viewBox="0 0 900 600" width="900" height="600" xmlns="http://www.w3.org/2000/svg" xmlns:xlink="http://www.w3.org/1999/xlink" version="1.1"><rect x="0" y="0" width="900" height="600" fill="#020d19"></rect><path d="M0 399L129 431L257 404L386 350L514 364L643 435L771 389L900 358L900 601L771 601L643 601L514 601L386 601L257 601L129 601L0 601Z" fill="#a69af3"></path><path d="M0 398L129 393L257 475L386 422L514 407L643 397L771 396L900 425L900 601L771 601L643 601L514 601L386 601L257 601L129 601L0 601Z" fill="#4fc1ff"></path><path d="M0 459L129 470L257 437L386 466L514 509L643 449L771 472L900 480L900 601L771 601L643 601L514 601L386 601L257 601L129 601L0 601Z" fill="#10defb"></path><path d="M0 501L129 520L257 482L386 524L514 508L643 482L771 514L900 492L900 601L771 601L643 601L514 601L386 601L257 601L129 601L0 601Z" fill="#79f3d9"></path><path d="M0 573L129 563L257 544L386 573L514 530L643 559L771 557L900 548L900 601L771 601L643 601L514 601L386 601L257 601L129 601L0 601Z" fill="#ceffbf"></path></svg>